<svg xmlns="http://www.w3.org/2000/svg" xmlns:xlink="http://www.w3.org/1999/xlink" width="59" height="127" viewBox="0 0 59 127">
  <defs>
    <clipPath id="clip-path">
      <rect width="59" height="127" fill="none"/>
    </clipPath>
  </defs>
  <g id="Repeat_Grid_8" data-name="Repeat Grid 8" opacity="0.34" clip-path="url(#clip-path)">
    <g transform="translate(-222 -96)">
      <circle id="Ellipse_3" data-name="Ellipse 3" cx="2.5" cy="2.5" r="2.5" transform="translate(222 96)" fill="#f6e98e"/>
    </g>
    <g transform="translate(-213 -96)">
      <circle id="Ellipse_3-2" data-name="Ellipse 3" cx="2.5" cy="2.5" r="2.5" transform="translate(222 96)" fill="#f6e98e"/>
    </g>
    <g transform="translate(-204 -96)">
      <circle id="Ellipse_3-3" data-name="Ellipse 3" cx="2.5" cy="2.5" r="2.5" transform="translate(222 96)" fill="#f6e98e"/>
    </g>
    <g transform="translate(-195 -96)">
      <circle id="Ellipse_3-4" data-name="Ellipse 3" cx="2.5" cy="2.5" r="2.5" transform="translate(222 96)" fill="#f6e98e"/>
    </g>
    <g transform="translate(-186 -96)">
      <circle id="Ellipse_3-5" data-name="Ellipse 3" cx="2.5" cy="2.5" r="2.5" transform="translate(222 96)" fill="#f6e98e"/>
    </g>
    <g transform="translate(-177 -96)">
      <circle id="Ellipse_3-6" data-name="Ellipse 3" cx="2.5" cy="2.5" r="2.5" transform="translate(222 96)" fill="#f6e98e"/>
    </g>
    <g transform="translate(-168 -96)">
      <circle id="Ellipse_3-7" data-name="Ellipse 3" cx="2.5" cy="2.5" r="2.5" transform="translate(222 96)" fill="#f6e98e"/>
    </g>
    <g transform="translate(-222 -77)">
      <circle id="Ellipse_3-8" data-name="Ellipse 3" cx="2.5" cy="2.5" r="2.5" transform="translate(222 96)" fill="#f6e98e"/>
    </g>
    <g transform="translate(-213 -77)">
      <circle id="Ellipse_3-9" data-name="Ellipse 3" cx="2.5" cy="2.5" r="2.5" transform="translate(222 96)" fill="#f6e98e"/>
    </g>
    <g transform="translate(-204 -77)">
      <circle id="Ellipse_3-10" data-name="Ellipse 3" cx="2.5" cy="2.5" r="2.5" transform="translate(222 96)" fill="#f6e98e"/>
    </g>
    <g transform="translate(-195 -77)">
      <circle id="Ellipse_3-11" data-name="Ellipse 3" cx="2.5" cy="2.5" r="2.5" transform="translate(222 96)" fill="#f6e98e"/>
    </g>
    <g transform="translate(-186 -77)">
      <circle id="Ellipse_3-12" data-name="Ellipse 3" cx="2.5" cy="2.5" r="2.5" transform="translate(222 96)" fill="#f6e98e"/>
    </g>
    <g transform="translate(-177 -77)">
      <circle id="Ellipse_3-13" data-name="Ellipse 3" cx="2.5" cy="2.5" r="2.5" transform="translate(222 96)" fill="#f6e98e"/>
    </g>
    <g transform="translate(-168 -77)">
      <circle id="Ellipse_3-14" data-name="Ellipse 3" cx="2.5" cy="2.5" r="2.5" transform="translate(222 96)" fill="#f6e98e"/>
    </g>
    <g transform="translate(-222 -58)">
      <circle id="Ellipse_3-15" data-name="Ellipse 3" cx="2.5" cy="2.5" r="2.5" transform="translate(222 96)" fill="#f6e98e"/>
    </g>
    <g transform="translate(-213 -58)">
      <circle id="Ellipse_3-16" data-name="Ellipse 3" cx="2.5" cy="2.5" r="2.5" transform="translate(222 96)" fill="#f6e98e"/>
    </g>
    <g transform="translate(-204 -58)">
      <circle id="Ellipse_3-17" data-name="Ellipse 3" cx="2.5" cy="2.5" r="2.5" transform="translate(222 96)" fill="#f6e98e"/>
    </g>
    <g transform="translate(-195 -58)">
      <circle id="Ellipse_3-18" data-name="Ellipse 3" cx="2.5" cy="2.5" r="2.5" transform="translate(222 96)" fill="#f6e98e"/>
    </g>
    <g transform="translate(-186 -58)">
      <circle id="Ellipse_3-19" data-name="Ellipse 3" cx="2.5" cy="2.5" r="2.5" transform="translate(222 96)" fill="#f6e98e"/>
    </g>
    <g transform="translate(-177 -58)">
      <circle id="Ellipse_3-20" data-name="Ellipse 3" cx="2.5" cy="2.5" r="2.5" transform="translate(222 96)" fill="#f6e98e"/>
    </g>
    <g transform="translate(-168 -58)">
      <circle id="Ellipse_3-21" data-name="Ellipse 3" cx="2.5" cy="2.5" r="2.5" transform="translate(222 96)" fill="#f6e98e"/>
    </g>
    <g transform="translate(-222 -39)">
      <circle id="Ellipse_3-22" data-name="Ellipse 3" cx="2.5" cy="2.5" r="2.5" transform="translate(222 96)" fill="#f6e98e"/>
    </g>
    <g transform="translate(-213 -39)">
      <circle id="Ellipse_3-23" data-name="Ellipse 3" cx="2.5" cy="2.5" r="2.5" transform="translate(222 96)" fill="#f6e98e"/>
    </g>
    <g transform="translate(-204 -39)">
      <circle id="Ellipse_3-24" data-name="Ellipse 3" cx="2.5" cy="2.5" r="2.5" transform="translate(222 96)" fill="#f6e98e"/>
    </g>
    <g transform="translate(-195 -39)">
      <circle id="Ellipse_3-25" data-name="Ellipse 3" cx="2.5" cy="2.5" r="2.5" transform="translate(222 96)" fill="#f6e98e"/>
    </g>
    <g transform="translate(-186 -39)">
      <circle id="Ellipse_3-26" data-name="Ellipse 3" cx="2.5" cy="2.5" r="2.5" transform="translate(222 96)" fill="#f6e98e"/>
    </g>
    <g transform="translate(-177 -39)">
      <circle id="Ellipse_3-27" data-name="Ellipse 3" cx="2.5" cy="2.5" r="2.5" transform="translate(222 96)" fill="#f6e98e"/>
    </g>
    <g transform="translate(-168 -39)">
      <circle id="Ellipse_3-28" data-name="Ellipse 3" cx="2.5" cy="2.5" r="2.5" transform="translate(222 96)" fill="#f6e98e"/>
    </g>
    <g transform="translate(-222 -20)">
      <circle id="Ellipse_3-29" data-name="Ellipse 3" cx="2.5" cy="2.5" r="2.5" transform="translate(222 96)" fill="#f6e98e"/>
    </g>
    <g transform="translate(-213 -20)">
      <circle id="Ellipse_3-30" data-name="Ellipse 3" cx="2.5" cy="2.5" r="2.5" transform="translate(222 96)" fill="#f6e98e"/>
    </g>
    <g transform="translate(-204 -20)">
      <circle id="Ellipse_3-31" data-name="Ellipse 3" cx="2.5" cy="2.5" r="2.5" transform="translate(222 96)" fill="#f6e98e"/>
    </g>
    <g transform="translate(-195 -20)">
      <circle id="Ellipse_3-32" data-name="Ellipse 3" cx="2.5" cy="2.5" r="2.5" transform="translate(222 96)" fill="#f6e98e"/>
    </g>
    <g transform="translate(-186 -20)">
      <circle id="Ellipse_3-33" data-name="Ellipse 3" cx="2.5" cy="2.5" r="2.5" transform="translate(222 96)" fill="#f6e98e"/>
    </g>
    <g transform="translate(-177 -20)">
      <circle id="Ellipse_3-34" data-name="Ellipse 3" cx="2.5" cy="2.5" r="2.5" transform="translate(222 96)" fill="#f6e98e"/>
    </g>
    <g transform="translate(-168 -20)">
      <circle id="Ellipse_3-35" data-name="Ellipse 3" cx="2.5" cy="2.5" r="2.5" transform="translate(222 96)" fill="#f6e98e"/>
    </g>
    <g transform="translate(-222 -1)">
      <circle id="Ellipse_3-36" data-name="Ellipse 3" cx="2.5" cy="2.5" r="2.5" transform="translate(222 96)" fill="#f6e98e"/>
    </g>
    <g transform="translate(-213 -1)">
      <circle id="Ellipse_3-37" data-name="Ellipse 3" cx="2.5" cy="2.5" r="2.5" transform="translate(222 96)" fill="#f6e98e"/>
    </g>
    <g transform="translate(-204 -1)">
      <circle id="Ellipse_3-38" data-name="Ellipse 3" cx="2.5" cy="2.5" r="2.5" transform="translate(222 96)" fill="#f6e98e"/>
    </g>
    <g transform="translate(-195 -1)">
      <circle id="Ellipse_3-39" data-name="Ellipse 3" cx="2.5" cy="2.5" r="2.5" transform="translate(222 96)" fill="#f6e98e"/>
    </g>
    <g transform="translate(-186 -1)">
      <circle id="Ellipse_3-40" data-name="Ellipse 3" cx="2.5" cy="2.5" r="2.5" transform="translate(222 96)" fill="#f6e98e"/>
    </g>
    <g transform="translate(-177 -1)">
      <circle id="Ellipse_3-41" data-name="Ellipse 3" cx="2.5" cy="2.5" r="2.5" transform="translate(222 96)" fill="#f6e98e"/>
    </g>
    <g transform="translate(-168 -1)">
      <circle id="Ellipse_3-42" data-name="Ellipse 3" cx="2.5" cy="2.5" r="2.5" transform="translate(222 96)" fill="#f6e98e"/>
    </g>
    <g transform="translate(-222 18)">
      <circle id="Ellipse_3-43" data-name="Ellipse 3" cx="2.5" cy="2.5" r="2.5" transform="translate(222 96)" fill="#f6e98e"/>
    </g>
    <g transform="translate(-213 18)">
      <circle id="Ellipse_3-44" data-name="Ellipse 3" cx="2.5" cy="2.5" r="2.5" transform="translate(222 96)" fill="#f6e98e"/>
    </g>
    <g transform="translate(-204 18)">
      <circle id="Ellipse_3-45" data-name="Ellipse 3" cx="2.5" cy="2.5" r="2.5" transform="translate(222 96)" fill="#f6e98e"/>
    </g>
    <g transform="translate(-195 18)">
      <circle id="Ellipse_3-46" data-name="Ellipse 3" cx="2.5" cy="2.5" r="2.5" transform="translate(222 96)" fill="#f6e98e"/>
    </g>
    <g transform="translate(-186 18)">
      <circle id="Ellipse_3-47" data-name="Ellipse 3" cx="2.5" cy="2.5" r="2.5" transform="translate(222 96)" fill="#f6e98e"/>
    </g>
    <g transform="translate(-177 18)">
      <circle id="Ellipse_3-48" data-name="Ellipse 3" cx="2.5" cy="2.5" r="2.5" transform="translate(222 96)" fill="#f6e98e"/>
    </g>
    <g transform="translate(-168 18)">
      <circle id="Ellipse_3-49" data-name="Ellipse 3" cx="2.5" cy="2.5" r="2.5" transform="translate(222 96)" fill="#f6e98e"/>
    </g>
  </g>
</svg>
