<svg xmlns="http://www.w3.org/2000/svg" xmlns:xlink="http://www.w3.org/1999/xlink" width="103.188" height="110.756" viewBox="0 0 103.188 110.756">
  <defs>
    <filter id="notebook-pen" x="0" y="0" width="103.188" height="110.756" filterUnits="userSpaceOnUse">
      <feOffset dx="6" dy="3" input="SourceAlpha"/>
      <feGaussianBlur stdDeviation="3" result="blur"/>
      <feFlood flood-opacity="0.161"/>
      <feComposite operator="in" in2="blur"/>
      <feComposite in="SourceGraphic"/>
    </filter>
  </defs>
  <g transform="matrix(1, 0, 0, 1, 0, 0)" filter="url(#notebook-pen)">
    <path id="notebook-pen-2" data-name="notebook-pen" d="M77.99,25.813,84.2,28.471a1.623,1.623,0,0,1,.853,2.129l-1.51,3.443-9.158-3.933,1.51-3.443a1.623,1.623,0,0,1,2.129-.853ZM6.7,5.949h6.183V2.061a2.069,2.069,0,0,1,4.13,0V5.949h9.06V2.061a2.061,2.061,0,1,1,4.122,0V5.949h9.06V2.061a2.061,2.061,0,0,1,4.122,0V5.949h9.06V2.061a2.061,2.061,0,0,1,4.122,0V5.949h7a6.727,6.727,0,0,1,6.7,6.7v8.894a9.264,9.264,0,0,0-1.329,2.189l-1.51,3.443a7.551,7.551,0,0,0-.234.876,8.485,8.485,0,0,0-.438.868L66.3,29.981V12.654a2.718,2.718,0,0,0-2.7-2.7H56.624v3.888a2.061,2.061,0,1,1-4.122,0V9.951h-9.06v3.888a2.061,2.061,0,0,1-4.122,0V9.951H30.2v3.888a2.061,2.061,0,1,1-4.122,0V9.951h-9.06v3.888a2.069,2.069,0,0,1-4.13,0V9.951H6.7a2.7,2.7,0,0,0-2.7,2.7V82.112a2.718,2.718,0,0,0,2.7,2.71H44.665l.423,3.994H6.7A6.712,6.712,0,0,1,0,82.12V12.661A6.727,6.727,0,0,1,6.7,5.949Zm8.652,65.284a2,2,0,0,1,0-4H50.373l-1.714,4Zm0-13.2a2,2,0,0,1,0-4H54.948a1.9,1.9,0,0,1,.959.264l-1.6,3.775Zm0-13.2a2,2,0,1,1,0-4H54.948a2,2,0,1,1,0,4Zm0-13.2a2,2,0,0,1,0-4H54.948a2,2,0,0,1,0,4Zm45.8,54.88L56.481,90.3c-3.662,2.96-3.292,3.82-3.775-.664l-.755-7.052h0L73.641,31.845l9.2,3.941Zm-7.618-3.254,6.04,2.582-3.088,2.484c-2.408,1.948-2.167,2.507-2.476-.43l-.5-4.636Z" transform="translate(3 6)" fill-rule="evenodd"/>
  </g>
</svg>
