<svg id="Layer_2" data-name="Layer 2" xmlns="http://www.w3.org/2000/svg" width="48" height="48" viewBox="0 0 48 48">
  <g id="phone">
    <rect id="Rectangle_693" data-name="Rectangle 693" width="48" height="48" fill="#f6e98e" opacity="0"/>
    <path id="Path_516" data-name="Path 516" d="M32.8,42A30.84,30.84,0,0,1,2,11.2,9.2,9.2,0,0,1,11.2,2a7.88,7.88,0,0,1,1.54.14,7.58,7.58,0,0,1,1.44.36A2,2,0,0,1,15.48,4l2.74,12a2,2,0,0,1-.52,1.84c-.26.28-.28.3-2.74,1.58A19.82,19.82,0,0,0,24.7,29.2c1.3-2.48,1.32-2.5,1.6-2.76a2,2,0,0,1,1.84-.52l12,2.74a2,2,0,0,1,1.44,1.3,8.68,8.68,0,0,1,.38,1.46,9.54,9.54,0,0,1,.12,1.52A9.2,9.2,0,0,1,32.8,42Z" transform="translate(2 2)" fill="#f6e98e"/>
  </g>
</svg>
